<svg xmlns="http://www.w3.org/2000/svg" width="70" height="30" viewBox="0 0 70 30">
  <defs>
    <style>
      .cls-1 {
        fill: #fff;
        fill-rule: evenodd;
      }
    </style>
  </defs>
  <path id="logo_small.svg" class="cls-1" d="M80.96,46.579l3.9,5.814-3.744,5.579-4.2-6.246a2.808,2.808,0,0,0-2.251-1.182h-9.17V74.756a0.243,0.243,0,0,1-.242.244H59.18a0.244,0.244,0,0,1-.242-0.244V50.545h-8.7A0.241,0.241,0,0,1,50,50.3V45.244A0.243,0.243,0,0,1,50.242,45H78.205a3.185,3.185,0,0,1,2.708,1.508C80.93,46.531,80.945,46.555,80.96,46.579ZM99.464,75H92.24a0.246,0.246,0,0,1-.206-0.112L87.423,67.54,88.514,65.8l2.667-3.964,8.484,12.785A0.243,0.243,0,0,1,99.464,75Zm19.511-21.68a12.761,12.761,0,0,0-2.842-4.62,11.571,11.571,0,0,0-4.3-2.773A15.284,15.284,0,0,0,106.467,45H94.108a3.192,3.192,0,0,0-2.71,1.507c-0.017.024-.029,0.048-0.044,0.071L82.794,59.328,72.645,74.621a0.244,0.244,0,0,0,.2.379h7.225a0.242,0.242,0,0,0,.2-0.114L86.72,64.621l8.676-12.9a2.8,2.8,0,0,1,2.248-1.177h7.19a10.583,10.583,0,0,1,4.075.692,6.4,6.4,0,0,1,2.654,2A8.227,8.227,0,0,1,113,56.366a17.681,17.681,0,0,1,.438,4.1,12.3,12.3,0,0,1-.629,4.2,7.662,7.662,0,0,1-1.668,2.792,6.072,6.072,0,0,1-2.382,1.536,8.383,8.383,0,0,1-2.757.462h-3.213a0.243,0.243,0,0,0-.242.244v5.059a0.243,0.243,0,0,0,.242.244h3.674a14.221,14.221,0,0,0,5.952-1.156,11.806,11.806,0,0,0,4.219-3.174,13.417,13.417,0,0,0,2.525-4.785A20.885,20.885,0,0,0,120,59.833,18.823,18.823,0,0,0,118.975,53.32Z" transform="translate(-50 -45)"/>
</svg>
