<svg xmlns="http://www.w3.org/2000/svg" xmlns:xlink="http://www.w3.org/1999/xlink" viewBox="0 0 115.25 50"><defs><style>.cls-1{fill:none;}.cls-2{isolation:isolate;}.cls-3{fill:#e73f54;}.cls-4{clip-path:url(#clip-path);}.cls-5{opacity:0.4;mix-blend-mode:multiply;fill:url(#linear-gradient);}</style><clipPath id="clip-path"><path class="cls-1" d="M64.71,24,50.87,3.48l-.07-.11A5.17,5.17,0,0,0,46.41.94H1.18a.39.39,0,0,0-.39.39V9.47a.39.39,0,0,0,.39.39H15.25V48.79a.39.39,0,0,0,.39.39h9.82a.39.39,0,0,0,.39-.39V9.86H40.69a4.54,4.54,0,0,1,3.64,1.9l14,20.74L68.78,49a.39.39,0,0,0,.33.18H80.8a.39.39,0,0,0,.33-.61Z"/></clipPath><linearGradient id="linear-gradient" x1="13" y1="111.59" x2="67.96" y2="111.59" gradientTransform="matrix(0, 0.64, -1, 0, 170.69, -1.44)" gradientUnits="userSpaceOnUse"><stop offset="0" stop-color="#fff"/><stop offset="0.5" stop-color="#323031"/><stop offset="1" stop-color="#fff"/></linearGradient></defs><title>Artboard 1</title><g class="cls-2"><g id="Layer_1" data-name="Layer 1"><path class="cls-3" d="M64.71,24,50.87,3.48l-.07-.11A5.17,5.17,0,0,0,46.41.94H1.18a.39.39,0,0,0-.39.39V9.47a.39.39,0,0,0,.39.39H15.25V48.79a.39.39,0,0,0,.39.39h9.82a.39.39,0,0,0,.39-.39V9.86H40.69a4.54,4.54,0,0,1,3.64,1.9l14,20.74L68.78,49a.39.39,0,0,0,.33.18H80.8a.39.39,0,0,0,.33-.61Z"/><g class="cls-4"><rect class="cls-5" x="51.76" y="6.92" width="14.67" height="35.31" transform="translate(-3.6 37.43) rotate(-34.16)"/></g><path class="cls-3" d="M72.13.94a5.17,5.17,0,0,0-4.38,2.42l-.07.11L53.83,24,37.42,48.58a.39.39,0,0,0,.33.61H49.43a.39.39,0,0,0,.33-.18L60.18,32.49l14-20.74a4.54,4.54,0,0,1,3.64-1.89H89.48A17.21,17.21,0,0,1,96.07,11a10.34,10.34,0,0,1,4.29,3.21,13.2,13.2,0,0,1,2.33,5,28.28,28.28,0,0,1,.71,6.59,19.66,19.66,0,0,1-1,6.76,12.28,12.28,0,0,1-2.7,4.49,9.82,9.82,0,0,1-3.85,2.47,13.62,13.62,0,0,1-4.46.74h-5.2a.39.39,0,0,0-.39.39v8.14a.39.39,0,0,0,.39.39h5.94a23.12,23.12,0,0,0,9.63-1.86,19.08,19.08,0,0,0,6.82-5.1,21.54,21.54,0,0,0,4.08-7.7A33.42,33.42,0,0,0,114,24.8a30.1,30.1,0,0,0-1.66-10.47,20.51,20.51,0,0,0-4.6-7.43,18.71,18.71,0,0,0-7-4.46A24.85,24.85,0,0,0,92.13.94Z"/></g></g></svg>